# xmcd
#
# Track frame offsets: 
#        150
#        19910
#        40865
#        57363
#        79784
#        118457
#        141331
#        162776
#        182703
#        196223
#        228274
#        256692
#        275543
#        288113
#        301108
#
# Disc length: 4284 seconds
#
# Revision: 0
# Processed by: cddbd v1.5.2PL0 Copyright (c) Steve Scherf et al.
# Submitted via: ExactAudioCopy v0.99pb5
#
DISCID=cb10ba0f
DTITLE=BB King and Eric Clapton - Riding with the king
DYEAR=1900
DGENRE=Blues
TTITLE0=Riding with the king
TTITLE1=Ten long years
TTITLE2=Key to the highway
TTITLE3=Marry you
TTITLE4=Three o'clock blues
TTITLE5=Help the poor
TTITLE6=I wanna be
TTITLE7=Woried life blues
TTITLE8=Days of old
TTITLE9=When my heart beats like a hammer
TTITLE10=Hold on I'm coming
TTITLE11=Come rain or come shine
TTITLE12=Vacation
TTITLE13=Walking on sunset
TTITLE14=Laurelcanyon home
EXTD=
EXTT0=
EXTT1=
EXTT2=
EXTT3=
EXTT4=
EXTT5=
EXTT6=
EXTT7=
EXTT8=
EXTT9=
EXTT10=
EXTT11=
EXTT12=
EXTT13=
EXTT14=
PLAYORDER=
